<svg width="32" height="32" viewBox="0 0 32 32" fill="none" xmlns="http://www.w3.org/2000/svg">
<g clip-path="url(#clip0_324_4670)">
<path d="M11.3147 10.9788C12.2414 10.3609 11.8295 8.27566 11.7008 7.11719H19.4239C21.0973 7.76078 22.8994 10.2064 20.1963 14.4542C15.9273 21.1625 10.1562 11.7511 11.3147 10.9788Z" fill="#7152EE" stroke="#7152EE"/>
<path fill-rule="evenodd" clip-rule="evenodd" d="M11.8222 10.4712C11.5687 10.4803 11.3787 10.5323 11.2474 10.6206C11.1728 10.6703 11.1185 10.7337 11.0823 10.8106C11.0438 10.8943 11.0257 10.9984 11.028 11.1161C11.037 11.4623 11.2203 11.9148 11.571 12.4352L11.5755 12.442L12.7136 14.2521C13.1707 14.9784 13.6481 15.7183 14.2432 16.2613C14.8156 16.784 15.508 17.1369 16.4266 17.1392C17.4199 17.1415 18.1462 16.7749 18.7368 16.2228C19.3499 15.6481 19.8342 14.8607 20.3116 14.0756L21.5945 11.9646C21.8343 11.4193 21.9203 11.055 21.866 10.84C21.8343 10.7133 21.694 10.65 21.4542 10.6387C21.4044 10.6364 21.3501 10.6364 21.2981 10.6364C21.2415 10.6387 21.1804 10.6409 21.1193 10.6477C21.0854 10.65 21.0515 10.6477 21.0198 10.6409C20.9066 10.6477 20.789 10.6387 20.6691 10.6228L21.108 8.67921C17.8498 9.19283 15.413 6.77408 11.9692 8.19501L12.2181 10.4848C12.0733 10.4938 11.9421 10.4893 11.8222 10.4712ZM20.1532 25.8051V26.898L17.9064 28.1718V26.898L19.3522 26.3481L17.9064 25.8051V24.5312L20.1532 25.8051ZM16.2614 28.5316H15.3044L16.4855 23.9294H17.4425L16.2614 28.5316ZM14.664 25.8051L13.2182 26.3481L14.664 26.898V28.1718L12.4172 26.898V25.8051L14.664 24.5312V25.8051ZM21.8864 10.0617C21.9339 8.07735 22.2982 6.07266 20.8863 4.44582C19.8794 3.28509 17.2593 2.19224 15.56 2.09947C14.8428 2.061 15.1166 2.64476 14.4084 2.88913C12.9467 3.3937 11.6683 4.46619 11.2497 5.955C11.1818 6.19937 11.1343 6.44599 11.1094 6.69262C11.0619 7.72891 11.0891 8.96431 11.1637 9.94629C11.0619 9.98476 10.9691 10.0323 10.8877 10.0866C10.7112 10.2042 10.5822 10.3581 10.4963 10.5414C10.4148 10.7156 10.3786 10.9147 10.3854 11.1342C10.399 11.6003 10.6139 12.1659 11.0302 12.7882L12.1683 14.5983C12.5666 15.2318 12.9829 15.8767 13.4897 16.422C13.4648 16.4944 13.492 16.4152 13.4761 16.4627C13.3359 16.8881 13.1005 17.5985 12.8901 17.9967C11.5077 18.9018 8.34223 19.1349 7.11361 19.8204C3.76039 21.6894 4.9709 25.5426 4.93017 28.7262C4.99579 29.4366 5.39854 29.8439 6.19046 29.905H7.048L6.109 22.7777C6.0366 22.2234 6.4303 21.7686 6.9145 21.7686H11.3199H16.5194C16.3406 20.6146 13.3562 19.5014 13.2499 18.6326C13.2793 18.6122 13.3064 18.585 13.3291 18.5534C13.5825 18.2004 13.845 17.465 14.026 16.9288C14.6663 17.4469 15.4356 17.7863 16.4244 17.7886C17.3113 17.7908 18.0195 17.5442 18.6146 17.1437C18.6734 17.2275 18.7322 17.3157 18.7956 17.4085C19.0784 17.8248 19.4088 18.3067 19.7165 18.6507C19.6509 19.6394 17.0624 19.6507 16.7683 21.7686H25.9863C26.4705 21.7686 26.8664 22.2234 26.7918 22.7777L25.8528 29.905H26.7103C27.5022 29.8439 27.905 29.4366 27.9729 28.7262C27.7489 25.7191 28.8756 21.54 25.7894 19.8204C24.5766 19.1439 21.4768 18.9086 20.0672 18.033C19.8296 17.7388 19.5739 17.3632 19.3477 17.0329C19.2753 16.9243 19.2051 16.8224 19.1395 16.7297L19.1735 16.7003C19.85 16.0667 20.3591 15.2409 20.8591 14.4173L22.1556 12.2813C22.1624 12.27 22.1692 12.2564 22.176 12.2451C22.4792 11.555 22.5787 11.0482 22.4882 10.6907C22.4045 10.3581 22.2031 10.159 21.8864 10.0617Z" fill="#7152EE"/>
<path d="M13.4784 18.5467C13.9883 18.5467 14.5406 17.0596 14.7531 16.3161C15.0717 15.9974 15.964 15.4238 16.9837 15.6788C18.0034 15.9337 19.1081 18.5467 19.533 19.8214C14.1157 21.7334 12.8411 18.5467 13.4784 18.5467Z" fill="#7152EE" stroke="#7152EE"/>
</g>
<defs>
<clipPath id="clip0_324_4670">
<rect width="32" height="32" fill="white"/>
</clipPath>
</defs>
</svg>
