<svg width="32" height="32" viewBox="0 0 32 32" fill="none" xmlns="http://www.w3.org/2000/svg">
<path d="M14.4734 2.07422C12.2474 2.07422 10.0716 2.73431 8.22068 3.97092C6.36989 5.20753 4.92724 6.96529 4.07543 9.02189C3.22361 11.0784 3.00076 13.341 3.435 15.5246C3.86924 17.7077 4.94119 19.713 6.51519 21.2868C8.62581 23.3974 11.4888 24.5832 14.4732 24.5832C17.4577 24.5832 20.3208 23.3974 22.4313 21.2868C24.5418 19.1762 25.7277 16.3133 25.7277 13.3289C25.7277 10.3445 24.5419 7.48145 22.4313 5.371C21.3886 4.32257 20.1484 3.49165 18.7823 2.92572C17.4163 2.35996 15.9517 2.07073 14.4731 2.07474L14.4734 2.07422ZM11.6599 15.7216L10.8918 16.5507L7.9788 13.8521H7.97897C7.86343 13.7452 7.79784 13.595 7.79784 13.4376C7.79784 13.2803 7.86343 13.13 7.97897 13.023L10.892 10.3245L11.6601 11.1536L9.19455 13.4374L11.6599 15.7216ZM13.7159 19.1796L12.614 18.9278L15.2306 7.47746L16.3326 7.72922L13.7159 19.1796ZM20.9678 13.8522L18.0548 16.5508L17.2868 15.7217L19.7523 13.4378L17.2868 11.154L18.0548 10.3249L20.9678 13.0234C21.0832 13.1304 21.149 13.2806 21.149 13.438C21.149 13.5954 21.0832 13.7456 20.9678 13.8525V13.8522Z" fill="#7152EE"/>
<rect x="17" y="15" width="13" height="13" rx="6.5" fill="#E4DEFC"/>
<path d="M27.1373 23.6004C27.0623 23.5629 26.9873 23.5629 26.9498 23.6004C26.1998 24.1629 24.9249 24.5004 23.4999 24.5004C22.075 24.5004 20.8 24.1629 20.05 23.6004C19.975 23.5629 19.9 23.5629 19.8625 23.6004C19.7875 23.6379 19.75 23.7129 19.75 23.7504V24.3129C19.75 25.2503 21.4 26.0003 23.4999 26.0003C25.5998 26.0003 27.2498 25.2503 27.2498 24.3129V23.7504C27.2498 23.6754 27.2123 23.6004 27.1373 23.6004Z" fill="#684BDC"/>
<path d="M27.1373 19.8133C27.0623 19.7758 26.9873 19.7758 26.9498 19.8133C26.1998 20.3758 24.9249 20.7132 23.4999 20.7132C22.075 20.7132 20.8 20.3758 20.05 19.8133C19.975 19.7758 19.9 19.7758 19.8625 19.8133C19.7875 19.8508 19.75 19.9258 19.75 19.9633V20.5257C19.75 21.4632 21.4 22.2132 23.4999 22.2132C25.5998 22.2132 27.2498 21.4632 27.2498 20.5257V19.9633C27.2498 19.9258 27.2123 19.8508 27.1373 19.8133Z" fill="#684BDC"/>
<path d="M23.4999 20.3749C25.5998 20.3749 27.2498 19.6249 27.2498 18.6874C27.2498 17.75 25.5998 17 23.4999 17C21.4 17 19.75 17.75 19.75 18.6874C19.75 19.6249 21.3999 20.3749 23.4999 20.3749Z" fill="#684BDC"/>
<path d="M27.1373 21.6883C27.0623 21.6508 26.9873 21.6508 26.9498 21.6883C26.1998 22.2508 24.9249 22.5882 23.4999 22.5882C22.075 22.5882 20.8 22.2508 20.05 21.6883C19.975 21.6508 19.9 21.6508 19.8625 21.6883C19.7875 21.7258 19.75 21.8008 19.75 21.8383V22.4007C19.75 23.3382 21.4 24.0882 23.4999 24.0882C25.5998 24.0882 27.2498 23.3382 27.2498 22.4007V21.8383C27.2498 21.8008 27.2123 21.7258 27.1373 21.6883Z" fill="#684BDC"/>
</svg>
