<svg width="28" height="28" viewBox="0 0 28 28" fill="none" xmlns="http://www.w3.org/2000/svg">
<path d="M15.5337 21.2559H13.5989H11.6641L10.3516 25.4746H13.5989H16.8462L15.5337 21.2559Z" fill="#E4DEFC"/>
<path d="M15.5364 21.2559H13.6016V25.4746H16.8489L15.5364 21.2559Z" fill="#7152EE"/>
<path d="M13.5984 5.21289H2.39844V22.1816H13.5984H24.7984V5.21289H13.5984Z" fill="#333E73"/>
<path d="M13.6016 5.21289H24.8016V22.1816H13.6016V5.21289Z" fill="#1F2859"/>
<path d="M13.5984 6.61914H3.71094V20.7754H13.5984H23.4859V6.61914H13.5984Z" fill="#7152EE"/>
<path d="M13.6016 6.61914H23.4891V20.7754H13.6016V6.61914Z" fill="#E4DEFC"/>
<path d="M13.6016 24.9941H7.69531V26.4004H13.6016H19.5078V24.9941H13.6016Z" fill="#E4DEFC"/>
<path d="M13.6016 24.9941H19.5078V26.4004H13.6016V24.9941Z" fill="#7152EE"/>
<path d="M13.6016 2.40039C11.7903 2.40039 10.3203 3.97539 10.3203 5.91602C10.3203 7.85664 11.7903 9.43164 13.6016 9.43164C15.4128 9.43164 16.8828 7.85664 16.8828 5.91602C16.8828 3.97539 15.4128 2.40039 13.6016 2.40039Z" fill="#E4DEFC"/>
<path d="M16.8828 5.91602C16.8828 7.85664 15.4128 9.43164 13.6016 9.43164V2.40039C15.4128 2.40039 16.8828 3.97539 16.8828 5.91602Z" fill="#7152EE"/>
<path d="M18.8516 13.6504C17.0403 13.6504 15.5703 15.2254 15.5703 17.166V17.8691H22.1328V17.166C22.1328 15.2254 20.6628 13.6504 18.8516 13.6504Z" fill="#7152EE"/>
<path d="M18.8516 9.43164C17.7621 9.43164 16.8828 10.3738 16.8828 11.541C16.8828 12.7083 17.7621 13.6504 18.8516 13.6504C19.941 13.6504 20.8203 12.7083 20.8203 11.541C20.8203 10.3738 19.941 9.43164 18.8516 9.43164Z" fill="#7152EE"/>
<path d="M8.35156 13.6504C6.54031 13.6504 5.07031 15.2254 5.07031 17.166V17.8691H11.6328V17.166C11.6328 15.2254 10.1628 13.6504 8.35156 13.6504Z" fill="#E4DEFC"/>
<path d="M8.35156 9.43164C7.26214 9.43164 6.38281 10.3738 6.38281 11.541C6.38281 12.7083 7.26214 13.6504 8.35156 13.6504C9.44098 13.6504 10.3203 12.7083 10.3203 11.541C10.3203 10.3738 9.44098 9.43164 8.35156 9.43164Z" fill="#E4DEFC"/>
<path d="M13.6016 8.02539C14.6889 8.02539 15.5703 7.08099 15.5703 5.91602C15.5703 4.75104 14.6889 3.80664 13.6016 3.80664C12.5143 3.80664 11.6328 4.75104 11.6328 5.91602C11.6328 7.08099 12.5143 8.02539 13.6016 8.02539Z" fill="#E4DEFC"/>
<path d="M15.5703 5.91602C15.5703 7.08316 14.691 8.02539 13.6016 8.02539V3.80664C14.691 3.80664 15.5703 4.74878 15.5703 5.91602Z" fill="#7152EE"/>
<path d="M12.9453 5.21289H14.2578V6.61914H12.9453V5.21289Z" fill="#7152EE"/>
<path d="M13.6016 5.21289H14.2578V6.61914H13.6016V5.21289Z" fill="#E4DEFC"/>
</svg>
