<svg width="10" height="10" viewBox="0 0 10 10" fill="none" xmlns="http://www.w3.org/2000/svg">
<path fill-rule="evenodd" clip-rule="evenodd" d="M0.274587 0.274587C0.640704 -0.0915291 1.2343 -0.0915291 1.60041 0.274587L5 3.67417L8.39959 0.274587C8.7657 -0.0915291 9.3593 -0.0915291 9.72541 0.274587C10.0915 0.640704 10.0915 1.2343 9.72541 1.60041L6.32583 5L9.72541 8.39959C10.0915 8.7657 10.0915 9.3593 9.72541 9.72541C9.3593 10.0915 8.7657 10.0915 8.39959 9.72541L5 6.32583L1.60041 9.72541C1.2343 10.0915 0.640704 10.0915 0.274587 9.72541C-0.0915291 9.3593 -0.0915291 8.7657 0.274587 8.39959L3.67417 5L0.274587 1.60041C-0.0915291 1.2343 -0.0915291 0.640704 0.274587 0.274587Z" fill="#19191D"/>
</svg>
