<svg width="148" height="36" viewBox="0 0 148 36" fill="none" xmlns="http://www.w3.org/2000/svg">
<g clip-path="url(#clip0_1_8336)">
<path d="M110.934 26.6231H112.503L109.384 35.2527H107.813L110.933 26.6231H110.934Z" fill="#414141"/>
<path d="M115.649 34.5746C114.26 34.5746 113.333 33.7823 113.325 32.5963H114.783C114.791 33.0894 115.168 33.3344 115.704 33.3344C116.119 33.3344 116.49 33.1465 116.49 32.7764C116.49 32.4063 116.011 32.2833 115.426 32.1859C114.543 32.0382 113.419 31.802 113.419 30.4989C113.419 29.4527 114.309 28.7293 115.644 28.7293C116.979 28.7293 117.856 29.4724 117.861 30.5777H116.442C116.436 30.1377 116.128 29.9212 115.607 29.9212C115.141 29.9212 114.866 30.1348 114.866 30.4507C114.866 30.8198 115.339 30.9054 115.913 31.0097C116.815 31.1721 117.967 31.3631 117.967 32.7105C117.967 33.8393 117.044 34.5736 115.647 34.5736L115.649 34.5746Z" fill="#414141"/>
<path d="M122.906 33.0864V34.418H121.844C120.626 34.418 119.879 33.67 119.879 32.4427V30.0885H118.879V29.7657L121.064 27.4429H121.349V28.8858H122.876V30.0885H121.375V32.2439C121.375 32.7783 121.682 33.0854 122.227 33.0854H122.906L122.906 33.0864Z" fill="#414141"/>
<path d="M124.363 32.0825V28.8868H125.858V31.9122C125.858 32.6996 126.275 33.1681 126.965 33.1681C127.656 33.1681 128.065 32.6888 128.065 31.9122V28.8868H129.56V32.0825C129.56 33.5766 128.53 34.5745 126.965 34.5745C125.401 34.5745 124.363 33.5766 124.363 32.0825Z" fill="#414141"/>
<path d="M136.993 26.8928V34.4181H135.888L135.712 33.9574C135.248 34.3521 134.65 34.5834 133.98 34.5834C132.302 34.5834 131.072 33.3275 131.072 31.6524C131.072 29.9773 132.302 28.7303 133.98 28.7303C134.551 28.7303 135.069 28.8966 135.498 29.1889V26.8937H136.993V26.8928ZM135.609 31.6524C135.609 30.7853 134.97 30.1367 134.101 30.1367C133.232 30.1367 132.595 30.7834 132.595 31.6524C132.595 32.5215 133.232 33.1681 134.101 33.1681C134.97 33.1681 135.609 32.5175 135.609 31.6524Z" fill="#414141"/>
<path d="M138.941 28.8868H140.437V34.4181H138.941V28.8868ZM138.944 26.7589H140.434V28.1496H138.944V26.7589Z" fill="#414141"/>
<path d="M142.02 31.6524C142.02 29.9743 143.296 28.7303 145.01 28.7303C146.723 28.7303 148 29.9763 148 31.6524C148 33.3285 146.715 34.5745 145.01 34.5745C143.305 34.5745 142.02 33.3207 142.02 31.6524ZM146.484 31.6524C146.484 30.7568 145.872 30.1367 145.01 30.1367C144.148 30.1367 143.536 30.7568 143.536 31.6524C143.536 32.548 144.148 33.1681 145.01 33.1681C145.872 33.1681 146.484 32.548 146.484 31.6524Z" fill="#414141"/>
<path d="M38.0841 18.7553C35.2112 18.7553 33.0351 16.5782 33.0351 13.7289C33.0351 10.8796 35.2122 8.72028 38.0841 8.72028C40.4748 8.72028 42.331 10.172 42.8654 12.3668H40.9029C40.4029 11.2694 39.3331 10.5972 38.0841 10.5972C36.3529 10.5972 35.0508 11.9603 35.0508 13.7299C35.0508 15.4995 36.3716 16.8804 38.0841 16.8804C39.3508 16.8804 40.3675 16.2082 40.8852 15.0399H42.8831C42.3654 17.2701 40.457 18.7563 38.0841 18.7563V18.7553Z" fill="#414141"/>
<path d="M49.2903 18.7553C46.3288 18.7553 44.134 16.6137 44.134 13.7289C44.134 10.8442 46.3288 8.72028 49.2903 8.72028C52.2518 8.72028 54.4289 10.8619 54.4289 13.7289C54.4289 16.5959 52.2341 18.7553 49.2903 18.7553ZM49.2903 16.8794C51.1101 16.8794 52.4132 15.5694 52.4132 13.7289C52.4132 11.8885 51.1111 10.5962 49.2903 10.5962C47.4695 10.5962 46.1507 11.9062 46.1507 13.7289C46.1507 15.5517 47.4528 16.8794 49.2903 16.8794Z" fill="#414141"/>
<path d="M64.0319 5.53339H66.0122V18.525H64.5132L64.2455 17.4276C63.3892 18.2593 62.1934 18.7553 60.8559 18.7553C57.9298 18.7553 55.8423 16.5959 55.8423 13.7466C55.8423 10.8973 57.9298 8.72027 60.8559 8.72027C62.0871 8.72027 63.1747 9.12773 64.0319 9.83538V5.53339ZM60.9986 16.8784C62.8184 16.8784 64.1569 15.5153 64.1569 13.7279C64.1569 11.9406 62.8184 10.5952 60.9986 10.5952C59.1788 10.5952 57.8589 11.9406 57.8589 13.7279C57.8589 15.5153 59.1975 16.8784 60.9986 16.8784Z" fill="#414141"/>
<path d="M68.8043 7.48018V5.44482H70.8387V7.48018H68.8043ZM68.8398 18.5063V8.94961H70.82V18.5073H68.8398V18.5063Z" fill="#414141"/>
<path d="M78.7163 8.737C80.982 8.737 82.3914 10.4003 82.3914 12.7546V18.5063H80.4112V13.161C80.4112 11.4269 79.6435 10.5066 78.1986 10.5066C76.682 10.5066 75.6121 11.7103 75.6121 13.3913V18.5063H73.6319V8.94959H75.0059L75.3986 10.295C76.1121 9.32162 77.3079 8.73798 78.7173 8.73798L78.7163 8.737Z" fill="#414141"/>
<path d="M92.9471 8.9496H94.2492V17.2682C94.2492 20.3123 92.4294 22.1705 89.4492 22.1705C86.969 22.1705 85.221 20.896 84.7387 18.8075H86.7013C87.0763 19.8517 88.2179 20.4354 89.4315 20.4354C91.0909 20.4354 92.3221 19.338 92.3221 17.5329V17.09C91.4836 17.8154 90.3773 18.2406 89.1283 18.2406C86.4345 18.2406 84.3647 16.1698 84.3647 13.4799C84.3647 10.7901 86.4345 8.7193 89.1283 8.7193C90.5377 8.7193 91.769 9.28522 92.643 10.1887L92.9461 8.9496H92.9471ZM89.3429 16.4188C91.0554 16.4188 92.3044 15.1797 92.3044 13.4809C92.3044 11.7822 91.0731 10.5608 89.3429 10.5608C87.6126 10.5608 86.3804 11.8176 86.3804 13.4809C86.3804 15.1442 87.6294 16.4188 89.3429 16.4188Z" fill="#414141"/>
<path d="M101.83 8.77246C104.148 8.77246 105.594 10.4181 105.594 12.8432V18.5073H104.72V13.0203C104.72 10.8432 103.579 9.56869 101.634 9.56869C99.6889 9.56869 98.2264 11.1434 98.2264 13.0558V18.5073H97.3524V8.94962H97.9951L98.1732 10.8964C98.8691 9.60412 100.243 8.77246 101.831 8.77246H101.83Z" fill="#414141"/>
<path d="M108.656 6.98514V5.76373H109.762V6.98514H108.656ZM108.781 18.5073V8.94963H109.655V18.5073H108.781Z" fill="#414141"/>
<path d="M117.493 8.77246C119.812 8.77246 121.258 10.4181 121.258 12.8432V18.5073H120.384V13.0203C120.384 10.8432 119.242 9.56869 117.297 9.56869C115.353 9.56869 113.89 11.1434 113.89 13.0558V18.5073H113.016V8.94962H113.659L113.837 10.8964C114.533 9.60412 115.907 8.77246 117.494 8.77246H117.493Z" fill="#414141"/>
<path d="M124.552 6.98514V5.76373H125.641V6.98514H124.552ZM122.019 21.9058V21.1096H122.429C123.839 21.1096 124.659 20.2956 124.659 18.8971V8.94963H125.533V18.9492C125.533 20.7543 124.356 21.9048 122.536 21.9048H122.019V21.9058Z" fill="#414141"/>
<path d="M137.309 8.94961H138.023V18.5073H137.292L137.184 16.4365C136.346 17.8174 134.847 18.7022 132.992 18.7022C130.173 18.7022 128.05 16.5605 128.05 13.7289C128.05 10.8974 130.173 8.77344 132.992 8.77344C134.847 8.77344 136.346 9.65824 137.184 11.0391L137.309 8.9506V8.94961ZM133.045 17.8695C135.418 17.8695 137.149 16.1176 137.149 13.728C137.149 11.3383 135.418 9.60411 133.045 9.60411C130.672 9.60411 128.942 11.3914 128.942 13.728C128.942 16.0645 130.708 17.8695 133.045 17.8695Z" fill="#414141"/>
<path d="M144.253 18.7022C142.041 18.7022 140.649 17.6048 140.524 15.8175H141.38C141.505 17.1452 142.611 17.906 144.271 17.906C145.93 17.906 147.072 17.1452 147.072 15.9415C147.072 14.4543 145.627 14.1896 144.128 13.9415C142.469 13.6581 140.702 13.3402 140.702 11.3747C140.702 9.81671 142.111 8.77246 144.199 8.77246C146.286 8.77246 147.625 9.83443 147.696 11.5332H146.857C146.786 10.2763 145.805 9.55097 144.181 9.55097C142.557 9.55097 141.558 10.2763 141.558 11.356C141.558 12.6483 142.86 12.8609 144.342 13.1079C146.019 13.3914 147.946 13.7093 147.946 15.9041C147.946 17.6028 146.465 18.7002 144.252 18.7002L144.253 18.7022Z" fill="#414141"/>
<path d="M12.8233 26.7029C19.9054 26.7029 25.6466 20.8925 25.6466 13.7251C25.6466 6.55763 19.9054 0.747253 12.8233 0.747253C5.74119 0.747253 0 6.55763 0 13.7251C0 20.8925 5.74119 26.7029 12.8233 26.7029Z" fill="#414141"/>
<path d="M4.6494 13.7654C4.61102 15.0891 4.84133 16.4129 5.26454 17.6973C5.64936 18.7878 6.38063 19.7218 7.34319 20.3832C8.45929 21.084 9.73975 21.3566 11.0753 21.3566H19.2719V17.4522H11.0625C9.05769 17.4522 8.09415 16.0733 8.09415 13.7732V13.7752C8.09415 11.4751 9.05769 10.1011 11.0625 10.1011H19.2719V6.19775H11.0753C9.78011 6.19775 8.45929 6.47038 7.34319 7.17114C6.38063 7.83253 5.65035 8.76655 5.26454 9.85706C4.84133 11.1415 4.61102 12.4652 4.6494 13.789" fill="url(#paint0_linear_1_8336)"/>
<path fill-rule="evenodd" clip-rule="evenodd" d="M9.62854 12.9662L13.4768 13.7103C13.4768 13.7103 10.6541 16.6777 9.62854 12.9662Z" fill="white"/>
<path fill-rule="evenodd" clip-rule="evenodd" d="M18.6528 12.98L14.9226 13.7634C14.9226 13.7634 18.1538 16.6993 18.6528 12.98Z" fill="white"/>
</g>
<defs>
<linearGradient id="paint0_linear_1_8336" x1="4.64547" y1="13.7772" x2="19.2719" y2="13.7772" gradientUnits="userSpaceOnUse">
<stop stop-color="#F16222"/>
<stop offset="0.26" stop-color="#F37421"/>
<stop offset="0.71" stop-color="#F68D1E"/>
<stop offset="1" stop-color="#F7981D"/>
</linearGradient>
<clipPath id="clip0_1_8336">
<rect width="148" height="34.5055" fill="white" transform="translate(0 0.747253)"/>
</clipPath>
</defs>
</svg>
